<?xml version="1.0" encoding="UTF-8"?>
<!DOCTYPE svg PUBLIC "-//W3C//DTD SVG 1.1//EN" "http://www.w3.org/Graphics/SVG/1.1/DTD/svg11.dtd">
<svg xmlns="http://www.w3.org/2000/svg" version="1.1" width="48px" height="48px" style="shape-rendering:geometricPrecision; text-rendering:geometricPrecision; image-rendering:optimizeQuality; fill-rule:evenodd; clip-rule:evenodd" xmlns:xlink="http://www.w3.org/1999/xlink">
<g><path style="opacity:0.877" fill="#b765c8" d="M 10.5,6.5 C 10.5,7.5 10.5,8.5 10.5,9.5C 8.73535,10.4614 6.73535,10.7947 4.5,10.5C 4.5,8.5 4.5,6.5 4.5,4.5C 7.08209,4.02539 9.08209,4.69206 10.5,6.5 Z"/></g>
<g><path style="opacity:0.876" fill="#b765c8" d="M 36.5,9.5 C 36.5,8.5 36.5,7.5 36.5,6.5C 37.9179,4.69206 39.9179,4.02539 42.5,4.5C 42.5,6.5 42.5,8.5 42.5,10.5C 40.2646,10.7947 38.2646,10.4614 36.5,9.5 Z"/></g>
<g><path style="opacity:0.731" fill="#8d23a7" d="M 10.5,6.5 C 13.2367,6.8592 15.2367,8.19253 16.5,10.5C 16.0269,11.9063 15.0269,12.573 13.5,12.5C 12.8333,11.1667 11.8333,10.1667 10.5,9.5C 10.5,8.5 10.5,7.5 10.5,6.5 Z"/></g>
<g><path style="opacity:0.764" fill="#8f23aa" d="M 36.5,6.5 C 36.5,7.5 36.5,8.5 36.5,9.5C 35.1667,10.1667 34.1667,11.1667 33.5,12.5C 31.9731,12.573 30.9731,11.9063 30.5,10.5C 31.7633,8.19253 33.7633,6.8592 36.5,6.5 Z"/></g>
<g><path style="opacity:0.97" fill="#ba67c8" d="M 30.5,10.5 C 30.9731,11.9063 31.9731,12.573 33.5,12.5C 39.59,17.7021 42.09,24.3688 41,32.5C 37.7209,40.0623 31.8876,43.3956 23.5,42.5C 8.88423,42.5875 3.38423,35.5875 7,21.5C 8.67493,18.0149 10.8416,15.0149 13.5,12.5C 15.0269,12.573 16.0269,11.9063 16.5,10.5C 21.1667,9.16667 25.8333,9.16667 30.5,10.5 Z"/></g>
<g><path style="opacity:1" fill="#b5def8" d="M 20.5,16.5 C 28.6577,15.8229 32.1577,19.4895 31,27.5C 28.7742,31.8608 25.2742,33.3608 20.5,32C 16.1392,29.7742 14.6392,26.2742 16,21.5C 17.025,19.313 18.525,17.6464 20.5,16.5 Z"/></g>
<g><path style="opacity:1" fill="#4457b8" d="M 21.5,20.5 C 22.5,20.5 23.5,20.5 24.5,20.5C 24.5,21.5 24.5,22.5 24.5,23.5C 25.5,23.5 26.5,23.5 27.5,23.5C 27.3482,27.4866 25.3482,28.9866 21.5,28C 18.9142,25.506 18.9142,23.006 21.5,20.5 Z"/></g>
<g><path style="opacity:1" fill="#7628a1" d="M 17.5,38.5 C 21.3112,37.3547 25.3112,37.1881 29.5,38C 25.5609,39.8241 21.5609,39.9908 17.5,38.5 Z"/></g>
</svg>
